<?xml version="1.0" standalone="no"?><!DOCTYPE svg PUBLIC "-//W3C//DTD SVG 1.1//EN" "http://www.w3.org/Graphics/SVG/1.1/DTD/svg11.dtd"><svg t="1596194242811" class="icon" viewBox="0 0 1024 1024" version="1.1" xmlns="http://www.w3.org/2000/svg" p-id="4795" xmlns:xlink="http://www.w3.org/1999/xlink" width="200" height="200"><defs><style type="text/css"></style></defs><path d="M634.9 346.7l-11.7-1.2c-2-0.2-4.1-0.3-6.2-0.3H405.7c-2.1 0-4.2 0.1-6.2 0.3l-11.7 1.2V181.6c0-46 37.5-83.5 83.5-83.5h80.1c46 0 83.5 37.5 83.5 83.5v165.1z m-225.8-22.8h204.5V181.6c0-34.3-27.9-62.2-62.2-62.2h-80.1c-34.3 0-62.2 27.9-62.2 62.2v142.3zM748.1 869.7H274.6c-46 0-83.5-37.5-83.5-83.5v-1.5l65.6-225.9c1-43.8 43-81.9 90.7-81.9h327.8c47.8 0 89.8 38.1 90.7 81.9l65.6 225.9v1.5c0 46-37.4 83.5-83.4 83.5z m-535.7-82.1c0.8 33.6 28.4 60.7 62.2 60.7H748c33.8 0 61.4-27.1 62.2-60.7l-65.5-225.7v-1.5c0-35.6-36.7-62.2-69.5-62.2H347.5c-32.8 0-69.5 26.6-69.5 62.2v1.5l-65.6 225.7z" fill="#353535" p-id="4796"></path><path d="M700.4 501.9l-12.7-2.4c-4.3-0.8-8.5-1.2-12.5-1.2H347.5c-4.1 0-8.3 0.4-12.6 1.2l-12.7 2.4v-94.4c0-46 37.5-83.5 83.5-83.5h211.2c46 0 83.5 37.5 83.5 83.5v94.4zM405.7 345.2c-34.3 0-62.2 27.9-62.2 62.2V477c1.3-0.1 2.6-0.1 3.9-0.1h327.8c1.3 0 2.6 0 3.9 0.1v-69.6c0-34.3-27.9-62.2-62.2-62.2H405.7zM675.321 752.947l20.305-6.434 32.778 103.433-20.305 6.434zM595.123 752.973l20.306-6.435 32.777 103.433-20.305 6.435zM300.898 849.263l32.044-102.715 20.332 6.343-32.043 102.715zM379.542 849.325l32.043-102.715 20.333 6.343-32.043 102.715z" fill="#353535" p-id="4797"></path></svg>