<?xml version="1.0" standalone="no"?><!DOCTYPE svg PUBLIC "-//W3C//DTD SVG 1.1//EN" "http://www.w3.org/Graphics/SVG/1.1/DTD/svg11.dtd"><svg t="1596195210329" class="icon" viewBox="0 0 1024 1024" version="1.1" xmlns="http://www.w3.org/2000/svg" p-id="14184" xmlns:xlink="http://www.w3.org/1999/xlink" width="200" height="200"><defs><style type="text/css"></style></defs><path d="M903.3 312.5c-6.6-6.6-17.3-6.6-23.9 0L416.1 775.9l-21.9-65.8 79.3-79.3c6.6-6.6 6.6-17.3 0-23.9-6.6-6.6-17.3-6.6-23.9 0l-80.8 80.8c-1.1 1.1-2 2.4-2.8 3.8l-39.2-9.8-9.8-39.1c1.4-0.8 2.7-1.6 3.8-2.8L600 360.6c6.6-6.6 6.6-17.3 0-23.9s-17.3-6.6-23.9 0L298.4 614.3l-65.8-21.9L695.9 129c6.6-6.6 6.6-17.3 0-23.9s-17.3-6.6-23.9 0L193.2 583.8c-0.7 0.7-1.3 1.5-1.9 2.3-3.2 2.3-5.6 5.7-6.6 9.6L117 871c-0.4 1.4-0.5 2.9-0.5 4.3 0.1 4.3 1.8 8.5 5 11.7 2.4 2.4 5.4 4 8.7 4.6 1.1 0.2 2.2 0.3 3.3 0.3 1.3 0 2.7-0.2 4-0.5l123-30.3 152.2-37.5c3.9-1 7.3-3.3 9.6-6.6 0.8-0.6 1.6-1.2 2.3-1.9l478.7-478.7c6.6-6.5 6.6-17.2 0-23.9zM156.5 851.9l16.4-66.7 50.3 50.3-66.7 16.4zM261.6 826l-79.2-79.2 30.8-125.2 69.5 23.2 13.7 54.8c1.5 6.1 6.2 10.8 12.3 12.3l54.8 13.7 23.2 69.5L261.6 826z" fill="#2D3742" p-id="14185"></path><path d="M534.7 545.6c3.3 3.3 7.6 5 12 5s8.7-1.7 12-5l233-233c6.6-6.6 6.6-17.3 0-23.9s-17.3-6.6-23.9 0l-233 233c-6.7 6.6-6.7 17.3-0.1 23.9z" fill="#2D3742" p-id="14186"></path></svg>